<?xml version="1.0" encoding="UTF-8"?>
<svg xmlns="http://www.w3.org/2000/svg" xmlns:xodm="http://www.corel.com/coreldraw/odm/2003" version="1.1" viewBox="0 0 726 726">
  <defs>
    <style>
      .cls-1 {
        stroke-opacity: 0;
      }

      .cls-1, .cls-2, .cls-3, .cls-4 {
        fill: none;
        stroke: #fff;
        stroke-width: .5px;
      }

      .cls-1, .cls-3 {
        stroke-miterlimit: 25.6;
      }

      .cls-2, .cls-4 {
        stroke-miterlimit: 10;
      }

      .cls-4 {
        fill-rule: evenodd;
      }
    </style>
  </defs>
  <!-- Generator: Adobe Illustrator 28.7.1, SVG Export Plug-In . SVG Version: 1.2.0 Build 142)  -->
  <g>
    <g id="Layer_1">
      <g id="Plan_x5F_1">
        <path class="cls-2" d="M68.4.1l53.5.3c26.7.1,48.5,21.8,48.5,48.5v36.5c0,23.4-9.6,44.7-24.9,60.1-15.4,15.4-36.7,24.9-60.1,24.9s-44.7-9.6-60.1-24.9C10,130,.4,108.8.4,85.4v-17.3c0-6.2,5.1-11.3,11.3-11.3h33.9c6.2,0,11.3,5.1,11.3,11.3v17.3c0,7.8,3.2,14.9,8.4,20,5.2,5.2,12.3,8.4,20,8.4s14.9-3.2,20-8.4c5.2-5.2,8.4-12.3,8.4-20v-28.4l-45.5-.2c-6.2,0-11.3-5.1-11.3-11.3V11.5c0-3.1,1.1-5.8,3.3-8,2.2-2.2,4.9-3.3,8-3.3h0Z"/>
        <path class="cls-3" d="M612.4,181.5l53.5.3c26.7.1,48.5,21.8,48.5,48.5v36.5c0,23.4-9.6,44.7-24.9,60.1-15.4,15.4-36.7,24.9-60.1,24.9s-44.7-9.6-60.1-24.9c-15.4-15.4-24.9-36.7-24.9-60.1v-17.3c0-6.2,5.1-11.3,11.3-11.3h33.9c6.2,0,11.3,5.1,11.3,11.3v17.3c0,7.8,3.2,14.9,8.4,20,5.2,5.2,12.3,8.4,20,8.4s14.9-3.2,20-8.4c5.2-5.2,8.4-12.3,8.4-20v-28.4l-45.5-.2c-6.2,0-11.3-5.1-11.3-11.3v-34c0-3.1,1.1-5.8,3.3-8,2.2-2.2,4.9-3.3,8-3.3h0Z"/>
        <path class="cls-3" d="M431.1,362.8l53.5.3c26.7.1,48.5,21.8,48.5,48.5v36.5c0,23.4-9.6,44.7-24.9,60.1-15.4,15.4-36.7,24.9-60.1,24.9s-44.7-9.6-60.1-24.9c-15.4-15.4-24.9-36.7-24.9-60.1v-17.3c0-6.2,5.1-11.3,11.3-11.3h33.9c6.2,0,11.3,5.1,11.3,11.3v17.3c0,7.8,3.2,14.9,8.4,20,5.2,5.2,12.3,8.4,20,8.4s14.9-3.2,20-8.4c5.2-5.2,8.4-12.3,8.4-20v-28.4l-45.5-.2c-6.2,0-11.3-5.1-11.3-11.3v-34c0-3.1,1.1-5.8,3.3-8,2.2-2.2,4.9-3.3,8-3.3Z"/>
        <path class="cls-3" d="M249.8,544.1l53.5.3c26.7.1,48.5,21.8,48.5,48.5v36.5c0,23.4-9.6,44.7-24.9,60.1-15.4,15.4-36.7,24.9-60.1,24.9s-44.7-9.6-60.1-24.9c-15.4-15.4-24.9-36.7-24.9-60.1v-17.3c0-6.2,5.1-11.3,11.3-11.3h33.9c6.2,0,11.3,5.1,11.3,11.3v17.3c0,7.8,3.2,14.9,8.4,20,5.2,5.2,12.3,8.4,20,8.4s14.9-3.2,20-8.4c5.2-5.2,8.4-12.3,8.4-20v-28.4l-45.5-.2c-6.2,0-11.3-5.1-11.3-11.3v-34c0-3.1,1.1-5.8,3.3-8,2.2-2.2,4.9-3.3,8.1-3.3h0Z"/>
        <path class="cls-3" d="M533.3,68.2l-.3,53.5c-.1,26.7-21.8,48.5-48.5,48.5h-36.5c-23.4,0-44.7-9.6-60.1-24.9-15.4-15.4-24.9-36.7-24.9-60.1s9.6-44.7,24.9-60.1C403.3,9.8,424.6.3,448,.3h17.3c6.2,0,11.3,5.1,11.3,11.3v33.9c0,6.2-5.1,11.3-11.3,11.3h-17.3c-7.8,0-14.9,3.2-20,8.4-5.2,5.2-8.4,12.3-8.4,20s3.2,14.9,8.4,20c5.2,5.2,12.3,8.4,20,8.4h28.4l.2-45.5c0-6.2,5.1-11.3,11.3-11.3h34c3.1,0,5.8,1.1,8,3.3,2.2,2.2,3.3,4.9,3.3,8Z"/>
        <path class="cls-3" d="M170.6,430.9l-.3,53.5c-.1,26.7-21.8,48.5-48.5,48.5h-36.5c-23.4,0-44.7-9.6-60.1-24.9C9.9,492.6.3,471.3.3,447.9s9.6-44.7,24.9-60.1c15.4-15.4,36.7-24.9,60.1-24.9h17.3c6.2,0,11.3,5.1,11.3,11.3v33.9c0,6.2-5.1,11.3-11.3,11.3h-17.3c-7.8,0-14.9,3.2-20,8.4-5.2,5.2-8.4,12.3-8.4,20s3.2,14.9,8.4,20c5.2,5.2,12.3,8.4,20,8.4h28.4l.2-45.5c0-6.2,5.1-11.3,11.3-11.3h34c3.1,0,5.8,1.1,8,3.3,2.2,2.2,3.3,4.9,3.3,8h0Z"/>
        <path class="cls-4" d="M351.9,430.9l-.3,53.5c-.1,26.7-21.8,48.5-48.5,48.5h-36.5c-23.4,0-44.7-9.6-60.1-24.9-15.4-15.4-24.9-36.7-24.9-60.1s9.6-44.7,24.9-60.1c15.4-15.4,36.7-24.9,60.1-24.9h17.3c6.2,0,11.3,5.1,11.3,11.3v33.9c0,6.2-5.1,11.3-11.3,11.3h-17.3c-7.8,0-14.9,3.2-20,8.4-5.2,5.2-8.4,12.3-8.4,20s3.2,14.9,8.4,20c5.2,5.2,12.3,8.4,20,8.4h28.4l.2-45.5c0-6.2,5.1-11.3,11.3-11.3h34c3.1,0,5.8,1.1,8,3.3,2.2,2.2,3.3,4.9,3.3,8h0Z"/>
        <path class="cls-3" d="M351.9,249.6l-.3,53.5c-.1,26.7-21.8,48.5-48.5,48.5h-36.5c-23.4,0-44.7-9.6-60.1-24.9-15.4-15.4-24.9-36.7-24.9-60.1s9.6-44.7,24.9-60.1c15.4-15.4,36.7-24.9,60.1-24.9h17.3c6.2,0,11.3,5.1,11.3,11.3v33.9c0,6.2-5.1,11.3-11.3,11.3h-17.3c-7.8,0-14.9,3.2-20,8.4s-8.4,12.3-8.4,20,3.2,14.9,8.4,20c5.2,5.2,12.3,8.4,20,8.4h28.4l.2-45.5c0-6.2,5.1-11.3,11.3-11.3h34c3.1,0,5.8,1.1,8,3.3,2.2,2.2,3.3,4.9,3.3,8.1h0Z"/>
        <path class="cls-3" d="M714.6,68.2l-.3,53.5c-.1,26.7-21.8,48.5-48.5,48.5h-36.5c-23.4,0-44.7-9.6-60.1-24.9-15.4-15.4-24.9-36.7-24.9-60.1s9.6-44.7,24.9-60.1c15.4-15.4,36.7-24.9,60.1-24.9h17.3c6.2,0,11.3,5.1,11.3,11.3v33.9c0,6.2-5.1,11.3-11.3,11.3h-17.3c-7.8,0-14.9,3.2-20,8.4-5.2,5.2-8.4,12.3-8.4,20s3.2,14.9,8.4,20c5.2,5.2,12.3,8.4,20,8.4h28.4l.2-45.5c0-6.2,5.1-11.3,11.3-11.3h34c3.1,0,5.8,1.1,8,3.3s3.3,4.9,3.3,8Z"/>
        <path class="cls-3" d="M714.6,612.3l-.3,53.5c-.1,26.7-21.8,48.5-48.5,48.5h-36.5c-23.4,0-44.7-9.6-60.1-24.9-15.4-15.4-24.9-36.7-24.9-60.1s9.6-44.7,24.9-60.1c15.4-15.4,36.7-24.9,60.1-24.9h17.3c6.2,0,11.3,5.1,11.3,11.3v33.9c0,6.2-5.1,11.3-11.3,11.3h-17.3c-7.8,0-14.9,3.2-20,8.4-5.2,5.2-8.4,12.3-8.4,20s3.2,14.9,8.4,20c5.2,5.2,12.3,8.4,20,8.4h28.4l.2-45.5c0-6.2,5.1-11.3,11.3-11.3h34c3.1,0,5.8,1.1,8,3.3s3.3,4.9,3.3,8.1Z"/>
        <path class="cls-3" d="M170.6,612.3l-.3,53.5c-.1,26.7-21.8,48.5-48.5,48.5h-36.5c-23.4,0-44.7-9.6-60.1-24.9-15.4-15.4-24.9-36.7-24.9-60.1s9.6-44.7,24.9-60.1c15.4-15.4,36.7-24.9,60.1-24.9h17.3c6.2,0,11.3,5.1,11.3,11.3v33.9c0,6.2-5.1,11.3-11.3,11.3h-17.3c-7.8,0-14.9,3.2-20,8.4-5.2,5.2-8.4,12.3-8.4,20s3.2,14.9,8.4,20c5.2,5.2,12.3,8.4,20,8.4h28.4l.2-45.5c0-6.2,5.1-11.3,11.3-11.3h34c3.1,0,5.8,1.1,8,3.3,2.2,2.2,3.3,4.9,3.3,8.1h0Z"/>
        <path class="cls-4" d="M533.3,249.6l-.3,53.5c-.1,26.7-21.8,48.5-48.5,48.5h-36.5c-23.4,0-44.7-9.6-60.1-24.9-15.4-15.4-24.9-36.7-24.9-60.1s9.6-44.7,24.9-60.1c15.4-15.4,36.7-24.9,60.1-24.9h17.3c6.2,0,11.3,5.1,11.3,11.3v33.9c0,6.2-5.1,11.3-11.3,11.3h-17.3c-7.8,0-14.9,3.2-20,8.4-5.2,5.2-8.4,12.3-8.4,20s3.2,14.9,8.4,20c5.2,5.2,12.3,8.4,20,8.4h28.4l.2-45.5c0-6.2,5.1-11.3,11.3-11.3h34c3.1,0,5.8,1.1,8,3.3,2.2,2.2,3.3,4.9,3.3,8.1h0Z"/>
        <path class="cls-3" d="M266.8.4c23.5,0,44.7,9.5,60.1,24.9,15.4,15.4,24.9,36.6,24.9,60.1s-9.5,44.7-24.9,60.1c-15.4,15.4-36.6,24.9-60.1,24.9s-44.7-9.5-60.1-24.9c-15.4-15.4-24.9-36.6-24.9-60.1s9.5-44.7,24.9-60.1C222.1,9.9,243.3.4,266.8.4h0ZM286.6,65.6c-5.1-5.1-12.1-8.2-19.8-8.2s-14.8,3.1-19.8,8.2c-5.1,5.1-8.2,12.1-8.2,19.8s3.1,14.8,8.2,19.8c5.1,5.1,12.1,8.2,19.8,8.2s14.8-3.1,19.8-8.2c5.1-5.1,8.2-12.1,8.2-19.8s-3.1-14.8-8.2-19.8h0Z"/>
        <path class="cls-3" d="M629.5,363.1c23.5,0,44.7,9.5,60.1,24.9,15.4,15.4,24.9,36.6,24.9,60.1s-9.5,44.7-24.9,60.1c-15.4,15.4-36.6,24.9-60.1,24.9s-44.7-9.5-60.1-24.9c-15.4-15.4-24.9-36.6-24.9-60.1s9.5-44.7,24.9-60.1c15.4-15.4,36.6-24.9,60.1-24.9ZM649.3,428.2c-5.1-5.1-12.1-8.2-19.8-8.2s-14.8,3.1-19.8,8.2c-5.1,5.1-8.2,12.1-8.2,19.8s3.1,14.8,8.2,19.8c5.1,5.1,12.1,8.2,19.8,8.2s14.8-3.1,19.8-8.2c5.1-5.1,8.2-12.1,8.2-19.8s-3.1-14.8-8.2-19.8Z"/>
        <path class="cls-4" d="M448.1,544.4c23.5,0,44.7,9.5,60.1,24.9,15.4,15.4,24.9,36.6,24.9,60.1s-9.5,44.7-24.9,60.1c-15.4,15.4-36.6,24.9-60.1,24.9s-44.7-9.5-60.1-24.9c-15.4-15.4-24.9-36.6-24.9-60.1s9.5-44.7,24.9-60.1c15.4-15.4,36.6-24.9,60.1-24.9h0ZM468,609.6c-5.1-5.1-12.1-8.2-19.8-8.2s-14.8,3.1-19.8,8.2c-5.1,5.1-8.2,12.1-8.2,19.8s3.1,14.8,8.2,19.8c5.1,5.1,12.1,8.2,19.8,8.2s14.8-3.1,19.8-8.2c5.1-5.1,8.2-12.1,8.2-19.8s-3.1-14.8-8.2-19.8Z"/>
        <path class="cls-3" d="M85.4,181.7c23.5,0,44.7,9.5,60.1,24.9s24.9,36.6,24.9,60.1-9.5,44.7-24.9,60.1c-15.4,15.4-36.6,24.9-60.1,24.9s-44.7-9.5-60.1-24.9C10,311.4.4,290.2.4,266.7s9.5-44.7,24.9-60.1c15.4-15.4,36.6-24.9,60.1-24.9h0ZM105.3,246.9c-5.1-5.1-12.1-8.2-19.8-8.2s-14.8,3.1-19.8,8.2c-5.1,5.1-8.2,12.1-8.2,19.8s3.1,14.8,8.2,19.8c5.1,5.1,12.1,8.2,19.8,8.2s14.8-3.1,19.8-8.2c5.1-5.1,8.2-12.1,8.2-19.8s-3.1-14.8-8.2-19.8Z"/>
        <polygon class="cls-1" points=".4 714.4 714.5 714.4 714.5 725.7 .4 725.7 .4 714.4"/>
        <polygon class="cls-2" points="725.9 714.3 725.9 .3 714.6 .3 714.6 714.3 725.9 714.3"/>
      </g>
    </g>
  </g>
</svg>