<?xml version="1.0" encoding="UTF-8"?>
<svg xmlns="http://www.w3.org/2000/svg" xmlns:xodm="http://www.corel.com/coreldraw/odm/2003" version="1.1" viewBox="0 0 726 726">
  <defs>
    <style>
      .cls-1 {
        fill: none;
        stroke: #384824;
        stroke-miterlimit: 38.8;
        stroke-width: 1px;
      }
    </style>
  </defs>
  <!-- Generator: Adobe Illustrator 28.7.1, SVG Export Plug-In . SVG Version: 1.2.0 Build 142)  -->
  <g>
    <g id="Layer_1">
      <g id="Plan_x5F_1">
        <path class="cls-1" d="M73.9,5.7l53.5.3c26.7.1,48.5,21.8,48.5,48.5v36.5c0,23.4-9.6,44.7-25,60.1-15.4,15.4-36.7,25-60.1,25s-44.7-9.6-60.1-25c-15.4-15.4-25-36.7-25-60.1v-17.3c0-6.2,5.1-11.3,11.3-11.3h34c6.2,0,11.3,5.1,11.3,11.3v17.3c0,7.8,3.2,14.9,8.4,20,5.2,5.2,12.3,8.4,20,8.4s14.9-3.2,20-8.4,8.4-12.3,8.4-20v-28.4l-45.6-.2c-6.2,0-11.3-5.1-11.3-11.3V17c0-3.1,1.1-5.8,3.3-8,2.2-2.2,4.9-3.3,8.1-3.3Z"/>
        <path class="cls-1" d="M618.2,187.1l53.5.3c26.7.1,48.5,21.8,48.5,48.5v36.5c0,23.4-9.6,44.7-25,60.1-15.4,15.4-36.7,25-60.1,25s-44.7-9.6-60.1-25c-15.4-15.4-25-36.7-25-60.1v-17.3c0-6.2,5.1-11.3,11.3-11.3h34c6.2,0,11.3,5.1,11.3,11.3v17.3c0,7.8,3.2,14.9,8.4,20s12.3,8.4,20,8.4,14.9-3.2,20-8.4c5.2-5.2,8.4-12.3,8.4-20v-28.4l-45.6-.2c-6.2,0-11.3-5.1-11.3-11.3v-34c0-3.1,1.1-5.8,3.3-8,2.2-2.2,4.9-3.3,8.1-3.3h0Z"/>
        <path class="cls-1" d="M436.7,368.5l53.5.3c26.7.1,48.5,21.8,48.5,48.5v36.5c0,23.4-9.6,44.7-25,60.1-15.4,15.4-36.7,25-60.1,25s-44.7-9.6-60.1-25c-15.4-15.4-25-36.7-25-60.1v-17.3c0-6.2,5.1-11.3,11.3-11.3h34c6.2,0,11.3,5.1,11.3,11.3v17.3c0,7.8,3.2,14.9,8.4,20,5.2,5.2,12.3,8.4,20,8.4s14.9-3.2,20-8.4c5.2-5.2,8.4-12.3,8.4-20v-28.4l-45.6-.2c-6.2,0-11.3-5.1-11.3-11.3v-34c0-3.1,1.1-5.8,3.3-8,2.2-2.2,4.9-3.3,8.1-3.3h0Z"/>
        <path class="cls-1" d="M255.3,550l53.5.3c26.7.1,48.5,21.8,48.5,48.5v36.5c0,23.4-9.6,44.7-25,60.1-15.4,15.4-36.7,25-60.1,25s-44.7-9.6-60.1-25c-15.4-15.4-25-36.7-25-60.1v-17.3c0-6.2,5.1-11.3,11.3-11.3h34c6.2,0,11.3,5.1,11.3,11.3v17.3c0,7.8,3.2,14.9,8.4,20,5.2,5.2,12.3,8.4,20,8.4s14.9-3.2,20-8.4,8.4-12.3,8.4-20v-28.4l-45.6-.2c-6.2,0-11.3-5.1-11.3-11.3v-34c0-3.1,1.1-5.8,3.3-8,2.2-2.2,4.9-3.3,8.1-3.3h0Z"/>
        <path class="cls-1" d="M539,73.8l-.3,53.5c-.1,26.7-21.8,48.5-48.5,48.5h-36.5c-23.4,0-44.7-9.6-60.1-25-15.4-15.4-25-36.7-25-60.1s9.6-44.7,25-60.1c15.4-15.4,36.7-25,60.1-25h17.3c6.2,0,11.3,5.1,11.3,11.3v34c0,6.2-5.1,11.3-11.3,11.3h-17.3c-7.8,0-14.9,3.2-20,8.4-5.2,5.2-8.4,12.3-8.4,20s3.2,14.9,8.4,20c5.2,5.2,12.3,8.4,20,8.4h28.4l.2-45.6c0-6.2,5.1-11.3,11.3-11.3h34c3.1,0,5.8,1.1,8,3.3,2.2,2.2,3.3,4.9,3.3,8.1h0Z"/>
        <path class="cls-1" d="M176.1,436.7l-.3,53.5c-.1,26.7-21.8,48.5-48.5,48.5h-36.5c-23.4,0-44.7-9.6-60.1-25-15.4-15.4-25-36.7-25-60.1s9.6-44.7,25-60.1c15.4-15.4,36.7-25,60.1-25h17.3c6.2,0,11.3,5.1,11.3,11.3v34c0,6.2-5.1,11.3-11.3,11.3h-17.3c-7.8,0-14.9,3.2-20,8.4-5.2,5.2-8.4,12.3-8.4,20s3.2,14.9,8.4,20c5.2,5.2,12.3,8.4,20,8.4h28.4l.2-45.6c0-6.2,5.1-11.3,11.3-11.3h34c3.1,0,5.8,1.1,8,3.3,2.2,2.2,3.3,4.9,3.3,8.1h0Z"/>
        <path class="cls-1" d="M357.5,436.7l-.3,53.5c-.1,26.7-21.8,48.5-48.5,48.5h-36.5c-23.4,0-44.7-9.6-60.1-25-15.4-15.4-25-36.7-25-60.1s9.6-44.7,25-60.1c15.4-15.4,36.7-25,60.1-25h17.3c6.2,0,11.3,5.1,11.3,11.3v34c0,6.2-5.1,11.3-11.3,11.3h-17.3c-7.8,0-14.9,3.2-20,8.4-5.2,5.2-8.4,12.3-8.4,20s3.2,14.9,8.4,20c5.2,5.2,12.3,8.4,20,8.4h28.4l.2-45.6c0-6.2,5.1-11.3,11.3-11.3h34c3.1,0,5.8,1.1,8,3.3,2.2,2.2,3.3,4.9,3.3,8.1h0Z"/>
        <path class="cls-1" d="M357.5,255.2l-.3,53.5c-.1,26.7-21.8,48.5-48.5,48.5h-36.5c-23.4,0-44.7-9.6-60.1-25-15.4-15.4-25-36.7-25-60.1s9.6-44.7,25-60.1c15.4-15.4,36.7-25,60.1-25h17.3c6.2,0,11.3,5.1,11.3,11.3v34c0,6.2-5.1,11.3-11.3,11.3h-17.3c-7.8,0-14.9,3.2-20,8.4-5.2,5.2-8.4,12.3-8.4,20s3.2,14.9,8.4,20c5.2,5.2,12.3,8.4,20,8.4h28.4l.2-45.6c0-6.2,5.1-11.3,11.3-11.3h34c3.1,0,5.8,1.1,8,3.3,2.2,2.2,3.3,4.9,3.3,8.1h0Z"/>
        <path class="cls-1" d="M720.4,73.8l-.3,53.5c-.1,26.7-21.8,48.5-48.5,48.5h-36.5c-23.4,0-44.7-9.6-60.1-25-15.4-15.4-25-36.7-25-60.1s9.6-44.7,25-60.1c15.4-15.4,36.7-25,60.1-25h17.3c6.2,0,11.3,5.1,11.3,11.3v34c0,6.2-5.1,11.3-11.3,11.3h-17.3c-7.8,0-14.9,3.2-20,8.4-5.2,5.2-8.4,12.3-8.4,20s3.2,14.9,8.4,20,12.3,8.4,20,8.4h28.4l.2-45.6c0-6.2,5.1-11.3,11.3-11.3h34c3.1,0,5.8,1.1,8,3.3,2.2,2.2,3.3,4.9,3.3,8.1h0Z"/>
        <path class="cls-1" d="M720.4,618.1l-.3,53.5c-.1,26.7-21.8,48.5-48.5,48.5h-36.5c-23.4,0-44.7-9.6-60.1-25-15.4-15.4-25-36.7-25-60.1s9.6-44.7,25-60.1c15.4-15.4,36.7-25,60.1-25h17.3c6.2,0,11.3,5.1,11.3,11.3v34c0,6.2-5.1,11.3-11.3,11.3h-17.3c-7.8,0-14.9,3.2-20,8.4-5.2,5.2-8.4,12.3-8.4,20s3.2,14.9,8.4,20c5.2,5.2,12.3,8.4,20,8.4h28.4l.2-45.6c0-6.2,5.1-11.3,11.3-11.3h34c3.1,0,5.8,1.1,8,3.3,2.2,2.2,3.3,4.9,3.3,8.1h0Z"/>
        <path class="cls-1" d="M176.1,618.1l-.3,53.5c-.1,26.7-21.8,48.5-48.5,48.5h-36.5c-23.4,0-44.7-9.6-60.1-25-15.4-15.4-25-36.7-25-60.1s9.6-44.7,25-60.1c15.4-15.4,36.7-25,60.1-25h17.3c6.2,0,11.3,5.1,11.3,11.3v34c0,6.2-5.1,11.3-11.3,11.3h-17.3c-7.8,0-14.9,3.2-20,8.4-5.2,5.2-8.4,12.3-8.4,20s3.2,14.9,8.4,20c5.2,5.2,12.3,8.4,20,8.4h28.4l.2-45.6c0-6.2,5.1-11.3,11.3-11.3h34c3.1,0,5.8,1.1,8,3.3,2.2,2.2,3.3,4.9,3.3,8.1h0Z"/>
        <path class="cls-1" d="M539,255.2l-.3,53.5c-.1,26.7-21.8,48.5-48.5,48.5h-36.5c-23.4,0-44.7-9.6-60.1-25s-25-36.7-25-60.1,9.6-44.7,25-60.1c15.4-15.4,36.7-25,60.1-25h17.3c6.2,0,11.3,5.1,11.3,11.3v34c0,6.2-5.1,11.3-11.3,11.3h-17.3c-7.8,0-14.9,3.2-20,8.4-5.2,5.2-8.4,12.3-8.4,20s3.2,14.9,8.4,20c5.2,5.2,12.3,8.4,20,8.4h28.4l.2-45.6c0-6.2,5.1-11.3,11.3-11.3h34c3.1,0,5.8,1.1,8,3.3,2.2,2.2,3.3,4.9,3.3,8.1h0Z"/>
        <path class="cls-1" d="M272.3,5.9c23.5,0,44.7,9.5,60.1,24.9,15.4,15.4,24.9,36.7,24.9,60.1s-9.5,44.7-24.9,60.1c-15.4,15.4-36.7,24.9-60.1,24.9s-44.7-9.5-60.1-24.9c-15.4-15.4-24.9-36.7-24.9-60.1s9.5-44.7,24.9-60.1c15.4-15.4,36.7-24.9,60.1-24.9ZM292.2,71.1c-5.1-5.1-12.1-8.2-19.8-8.2s-14.8,3.1-19.8,8.2c-5.1,5.1-8.2,12.1-8.2,19.8s3.1,14.8,8.2,19.8c5.1,5.1,12.1,8.2,19.8,8.2s14.8-3.1,19.8-8.2c5.1-5.1,8.2-12.1,8.2-19.8s-3.1-14.8-8.2-19.8Z"/>
        <path class="cls-1" d="M635.2,368.8c23.5,0,44.7,9.5,60.1,24.9,15.4,15.4,24.9,36.7,24.9,60.1s-9.5,44.7-24.9,60.1c-15.4,15.4-36.7,24.9-60.1,24.9s-44.7-9.5-60.1-24.9-24.9-36.7-24.9-60.1,9.5-44.7,24.9-60.1c15.4-15.4,36.7-24.9,60.1-24.9h0ZM655.1,434c-5.1-5.1-12.1-8.2-19.8-8.2s-14.8,3.1-19.8,8.2c-5.1,5.1-8.2,12.1-8.2,19.8s3.1,14.8,8.2,19.8c5.1,5.1,12.1,8.2,19.8,8.2s14.8-3.1,19.8-8.2c5.1-5.1,8.2-12.1,8.2-19.8s-3.1-14.8-8.2-19.8Z"/>
        <path class="cls-1" d="M453.8,550.2c23.5,0,44.7,9.5,60.1,24.9,15.4,15.4,24.9,36.7,24.9,60.1s-9.5,44.7-24.9,60.1c-15.4,15.4-36.7,24.9-60.1,24.9s-44.7-9.5-60.1-24.9c-15.4-15.4-24.9-36.7-24.9-60.1s9.5-44.7,24.9-60.1c15.4-15.4,36.7-24.9,60.1-24.9ZM473.6,615.4c-5.1-5.1-12.1-8.2-19.8-8.2s-14.8,3.1-19.8,8.2c-5.1,5.1-8.2,12.1-8.2,19.8s3.1,14.8,8.2,19.8c5.1,5.1,12.1,8.2,19.8,8.2s14.8-3.1,19.8-8.2c5.1-5.1,8.2-12.1,8.2-19.8s-3.1-14.8-8.2-19.8Z"/>
        <path class="cls-1" d="M90.9,187.4c23.5,0,44.7,9.5,60.1,24.9,15.4,15.4,24.9,36.7,24.9,60.1s-9.5,44.7-24.9,60.1c-15.4,15.4-36.7,24.9-60.1,24.9s-44.7-9.5-60.1-24.9c-15.4-15.4-24.9-36.7-24.9-60.1s9.5-44.7,24.9-60.1c15.4-15.4,36.7-24.9,60.1-24.9ZM110.8,252.6c-5.1-5.1-12.1-8.2-19.8-8.2s-14.8,3.1-19.8,8.2c-5.1,5.1-8.2,12.1-8.2,19.8s3.1,14.8,8.2,19.8c5.1,5.1,12.1,8.2,19.8,8.2s14.8-3.1,19.8-8.2c5.1-5.1,8.2-12.1,8.2-19.8s-3.1-14.8-8.2-19.8Z"/>
      </g>
    </g>
  </g>
</svg>