<?xml version="1.0" encoding="UTF-8"?>
<!DOCTYPE svg PUBLIC "-//W3C//DTD SVG 1.0//EN" "http://www.w3.org/TR/2001/REC-SVG-20010904/DTD/svg10.dtd">
<!-- Creator: CorelDRAW 2019 (64-Bit) -->
<svg xmlns="http://www.w3.org/2000/svg" xml:space="preserve" width="726px" height="726px" version="1.0" style="shape-rendering:geometricPrecision; text-rendering:geometricPrecision; image-rendering:optimizeQuality; fill-rule:evenodd; clip-rule:evenodd"
viewBox="0 0 649.761 649.869"
 xmlns:xlink="http://www.w3.org/1999/xlink"
 xmlns:xodm="http://www.corel.com/coreldraw/odm/2003">
 <defs>
  <style type="text/css">
   <![CDATA[
    .str1 {stroke:#4A5C26;stroke-width:0.447;stroke-miterlimit:22.9256;stroke-opacity:0.000000}
    .str0 {stroke:#4A5C26;stroke-width:0.447;stroke-miterlimit:22.9256}
    .fil1 {fill:none;fill-rule:nonzero}
    .fil5 {fill:none;fill-rule:nonzero}
    .fil2 {fill:#4951DD}
    .fil3 {fill:#AD2D98}
    .fil4 {fill:#DC8B28}
    .fil0 {fill:#B2C828;fill-rule:nonzero}
   ]]>
  </style>
 </defs>
 <g id="Plan_x0020_1">
  <metadata id="CorelCorpID_0Corel-Layer"/>
  <path class="fil0" d="M61.188 0.108l47.902 0.232c23.917,0.132 43.431,19.518 43.431,43.432l0 32.657c0,20.952 -8.555,39.982 -22.332,53.759 -13.779,13.779 -32.809,22.333 -53.758,22.333 -20.951,0 -39.981,-8.554 -53.759,-22.333 -13.778,-13.778 -22.332,-32.81 -22.332,-53.759l0 -15.472c0,-5.588 4.557,-10.145 10.145,-10.145l30.38 0c5.588,0 10.145,4.557 10.145,10.145l0 15.472c0,6.962 2.869,13.314 7.488,17.933 4.618,4.619 10.969,7.487 17.932,7.487 6.964,0 13.314,-2.868 17.933,-7.487 4.619,-4.618 7.487,-10.97 7.487,-17.933l0 -25.417 -40.764 -0.214c-5.569,-0.029 -10.092,-4.576 -10.092,-10.145l0 -30.399c0,-2.803 1.002,-5.215 2.989,-7.192 1.986,-1.976 4.403,-2.967 7.205,-2.954z"/>
  <path class="fil1 str0" d="M548.167 162.435l47.902 0.231c23.917,0.132 43.431,19.519 43.431,43.432l0 32.657c0,20.952 -8.555,39.982 -22.332,53.759 -13.779,13.779 -32.809,22.333 -53.758,22.333 -20.951,0 -39.981,-8.554 -53.759,-22.333 -13.778,-13.778 -22.332,-32.81 -22.332,-53.759l0 -15.472c0,-5.587 4.557,-10.145 10.145,-10.145l30.38 0c5.588,0 10.145,4.558 10.145,10.145l0 15.472c0,6.963 2.869,13.314 7.488,17.933 4.618,4.619 10.969,7.488 17.932,7.488 6.964,0 13.314,-2.869 17.933,-7.488 4.619,-4.618 7.487,-10.969 7.487,-17.933l0 -25.417 -40.764 -0.214c-5.569,-0.029 -10.092,-4.576 -10.092,-10.145l0 -30.399c0,-2.803 1.002,-5.214 2.989,-7.191 1.986,-1.977 4.403,-2.968 7.205,-2.954z"/>
  <path class="fil1 str0" d="M385.841 324.761l47.902 0.232c23.917,0.132 43.431,19.518 43.431,43.431l0 32.658c0,20.952 -8.555,39.981 -22.333,53.759 -13.778,13.778 -32.808,22.333 -53.757,22.333 -20.951,0 -39.981,-8.555 -53.759,-22.333 -13.778,-13.779 -22.333,-32.81 -22.333,-53.759l0 -15.472c0,-5.588 4.558,-10.146 10.146,-10.146l30.38 0c5.587,0 10.145,4.558 10.145,10.146l0 15.472c0,6.962 2.869,13.314 7.487,17.933 4.619,4.618 10.969,7.487 17.933,7.487 6.964,0 13.314,-2.869 17.933,-7.487 4.618,-4.618 7.487,-10.97 7.487,-17.933l0 -25.417 -40.764 -0.214c-5.569,-0.029 -10.092,-4.576 -10.092,-10.145l0 -30.4c0,-2.802 1.002,-5.214 2.989,-7.191 1.986,-1.977 4.403,-2.967 7.205,-2.954z"/>
  <path class="fil1 str0" d="M223.515 487.087l47.901 0.232c23.918,0.132 43.431,19.518 43.431,43.432l0 32.657c0,20.952 -8.554,39.982 -22.332,53.759 -13.779,13.779 -32.808,22.333 -53.758,22.333 -20.95,0 -39.98,-8.554 -53.759,-22.333 -13.778,-13.778 -22.332,-32.81 -22.332,-53.759l0 -15.472c0,-5.588 4.558,-10.145 10.145,-10.145l30.38 0c5.588,0 10.146,4.557 10.146,10.145l0 15.472c0,6.962 2.868,13.314 7.487,17.933 4.619,4.619 10.969,7.487 17.932,7.487 6.964,0 13.315,-2.868 17.933,-7.487 4.619,-4.618 7.487,-10.97 7.487,-17.933l0 -25.417 -40.763 -0.214c-5.57,-0.029 -10.093,-4.576 -10.093,-10.145l0 -30.399c0,-2.803 1.003,-5.215 2.989,-7.192 1.987,-1.976 4.403,-2.967 7.206,-2.954z"/>
  <path class="fil1 str0" d="M477.289 61.072l-0.232 47.902c-0.132,23.917 -19.518,43.431 -43.431,43.431l-32.658 0c-20.952,0 -39.981,-8.554 -53.759,-22.332 -13.778,-13.779 -22.333,-32.809 -22.333,-53.758 0,-20.951 8.555,-39.981 22.333,-53.759 13.779,-13.778 32.81,-22.332 53.759,-22.332l15.472 0c5.588,0 10.146,4.557 10.146,10.145l0 30.38c0,5.588 -4.558,10.145 -10.146,10.145l-15.472 0c-6.962,0 -13.313,2.869 -17.932,7.488 -4.619,4.618 -7.488,10.969 -7.488,17.932 0,6.964 2.869,13.314 7.488,17.933 4.618,4.619 10.969,7.487 17.932,7.487l25.417 0 0.214 -40.764c0.03,-5.569 4.577,-10.092 10.146,-10.092l30.399 0c2.802,0 5.214,1.003 7.191,2.989 1.977,1.986 2.968,4.403 2.954,7.205z"/>
  <path class="fil1 str0" d="M152.636 385.725l-0.231 47.902c-0.132,23.917 -19.519,43.431 -43.432,43.431l-32.657 0c-20.952,0 -39.982,-8.555 -53.759,-22.333 -13.779,-13.778 -22.333,-32.808 -22.333,-53.757 0,-20.951 8.554,-39.981 22.333,-53.759 13.778,-13.778 32.81,-22.333 53.759,-22.333l15.472 0c5.588,0 10.145,4.558 10.145,10.146l0 30.38c0,5.587 -4.557,10.145 -10.145,10.145l-15.472 0c-6.963,0 -13.314,2.869 -17.933,7.487 -4.619,4.619 -7.488,10.97 -7.488,17.933 0,6.964 2.869,13.314 7.488,17.933 4.618,4.619 10.969,7.487 17.933,7.487l25.417 0 0.214 -40.764c0.029,-5.569 4.576,-10.092 10.145,-10.092l30.399 0c2.803,0 5.214,1.002 7.191,2.989 1.977,1.986 2.968,4.403 2.954,7.205z"/>
  <path class="fil2" d="M314.963 385.725l-0.232 47.902c-0.132,23.917 -19.518,43.431 -43.432,43.431l-32.657 0c-20.952,0 -39.981,-8.555 -53.759,-22.333 -13.779,-13.778 -22.333,-32.808 -22.333,-53.757 0,-20.951 8.554,-39.981 22.333,-53.759 13.779,-13.778 32.81,-22.333 53.759,-22.333l15.472 0c5.588,0 10.145,4.558 10.145,10.146l0 30.38c0,5.587 -4.557,10.145 -10.145,10.145l-15.472 0c-6.962,0 -13.314,2.869 -17.933,7.487 -4.619,4.619 -7.487,10.97 -7.487,17.933 0,6.964 2.868,13.314 7.487,17.933 4.618,4.619 10.97,7.487 17.933,7.487l25.417 0 0.214 -40.764c0.029,-5.569 4.576,-10.092 10.145,-10.092l30.399 0c2.803,0 5.215,1.002 7.192,2.989 1.977,1.986 2.967,4.403 2.954,7.205z"/>
  <path class="fil1 str0" d="M314.963 223.399l-0.232 47.902c-0.132,23.917 -19.518,43.43 -43.432,43.43l-32.657 0c-20.952,0 -39.981,-8.554 -53.759,-22.332 -13.779,-13.779 -22.333,-32.808 -22.333,-53.758 0,-20.95 8.554,-39.98 22.333,-53.759 13.779,-13.778 32.81,-22.332 53.759,-22.332l15.472 0c5.588,0 10.145,4.558 10.145,10.145l0 30.38c0,5.588 -4.557,10.146 -10.145,10.146l-15.472 0c-6.962,0 -13.314,2.868 -17.933,7.487 -4.619,4.619 -7.487,10.969 -7.487,17.932 0,6.964 2.868,13.315 7.487,17.934 4.618,4.618 10.97,7.487 17.933,7.487l25.417 0 0.214 -40.764c0.029,-5.569 4.576,-10.093 10.145,-10.093l30.399 0c2.803,0 5.215,1.003 7.192,2.989 1.977,1.987 2.967,4.403 2.954,7.206z"/>
  <path class="fil1 str0" d="M639.616 61.072l-0.232 47.902c-0.132,23.917 -19.519,43.431 -43.432,43.431l-32.657 0c-20.952,0 -39.982,-8.554 -53.759,-22.332 -13.779,-13.779 -22.333,-32.809 -22.333,-53.758 0,-20.951 8.554,-39.981 22.333,-53.759 13.778,-13.778 32.81,-22.332 53.759,-22.332l15.472 0c5.588,0 10.145,4.557 10.145,10.145l0 30.38c0,5.588 -4.557,10.145 -10.145,10.145l-15.472 0c-6.963,0 -13.314,2.869 -17.933,7.488 -4.619,4.618 -7.488,10.969 -7.488,17.932 0,6.964 2.869,13.314 7.488,17.933 4.618,4.619 10.969,7.487 17.933,7.487l25.417 0 0.214 -40.764c0.029,-5.569 4.576,-10.092 10.145,-10.092l30.399 0c2.803,0 5.214,1.003 7.191,2.989 1.977,1.986 2.968,4.403 2.955,7.205z"/>
  <path class="fil1 str0" d="M639.616 548.052l-0.232 47.901c-0.132,23.917 -19.519,43.431 -43.432,43.431l-32.657 0c-20.952,0 -39.982,-8.554 -53.759,-22.332 -13.779,-13.779 -22.333,-32.809 -22.333,-53.758 0,-20.951 8.554,-39.981 22.333,-53.759 13.778,-13.778 32.81,-22.332 53.759,-22.332l15.472 0c5.588,0 10.145,4.557 10.145,10.145l0 30.38c0,5.588 -4.557,10.145 -10.145,10.145l-15.472 0c-6.963,0 -13.314,2.869 -17.933,7.488 -4.619,4.618 -7.488,10.969 -7.488,17.932 0,6.964 2.869,13.315 7.488,17.933 4.618,4.619 10.969,7.487 17.933,7.487l25.417 0 0.214 -40.764c0.029,-5.569 4.576,-10.092 10.145,-10.092l30.399 0c2.803,0 5.214,1.003 7.191,2.989 1.977,1.986 2.968,4.403 2.955,7.206z"/>
  <path class="fil1 str0" d="M152.636 548.052l-0.231 47.901c-0.132,23.917 -19.519,43.431 -43.432,43.431l-32.657 0c-20.952,0 -39.982,-8.554 -53.759,-22.332 -13.779,-13.779 -22.333,-32.809 -22.333,-53.758 0,-20.951 8.554,-39.981 22.333,-53.759 13.778,-13.778 32.81,-22.332 53.759,-22.332l15.472 0c5.588,0 10.145,4.557 10.145,10.145l0 30.38c0,5.588 -4.557,10.145 -10.145,10.145l-15.472 0c-6.963,0 -13.314,2.869 -17.933,7.488 -4.619,4.618 -7.488,10.969 -7.488,17.932 0,6.964 2.869,13.315 7.488,17.933 4.618,4.619 10.969,7.487 17.933,7.487l25.417 0 0.214 -40.764c0.029,-5.569 4.576,-10.092 10.145,-10.092l30.399 0c2.803,0 5.214,1.003 7.191,2.989 1.977,1.986 2.968,4.403 2.954,7.206z"/>
  <path class="fil3" d="M477.289 223.399l-0.232 47.902c-0.132,23.917 -19.518,43.43 -43.431,43.43l-32.658 0c-20.952,0 -39.981,-8.554 -53.759,-22.332 -13.778,-13.779 -22.333,-32.808 -22.333,-53.758 0,-20.95 8.555,-39.98 22.333,-53.759 13.779,-13.778 32.81,-22.332 53.759,-22.332l15.472 0c5.588,0 10.146,4.558 10.146,10.145l0 30.38c0,5.588 -4.558,10.146 -10.146,10.146l-15.472 0c-6.962,0 -13.313,2.868 -17.932,7.487 -4.619,4.619 -7.488,10.969 -7.488,17.932 0,6.964 2.869,13.315 7.488,17.934 4.618,4.618 10.969,7.487 17.932,7.487l25.417 0 0.214 -40.764c0.03,-5.569 4.577,-10.093 10.146,-10.093l30.399 0c2.802,0 5.214,1.003 7.191,2.989 1.977,1.987 2.968,4.403 2.954,7.206z"/>
  <path class="fil1 str0" d="M238.756 0.34c21.007,0 40.033,8.519 53.803,22.288 13.769,13.77 22.288,32.796 22.288,53.803 0,21.009 -8.519,40.032 -22.288,53.802 -13.77,13.77 -32.795,22.288 -53.803,22.288 -21.009,0 -40.032,-8.518 -53.802,-22.288 -13.77,-13.77 -22.288,-32.793 -22.288,-53.802 0,-21.008 8.518,-40.033 22.288,-53.803 13.77,-13.769 32.793,-22.288 53.802,-22.288zm17.752 58.339c-4.54,-4.539 -10.817,-7.35 -17.752,-7.35 -6.934,0 -13.211,2.811 -17.751,7.35 -4.541,4.54 -7.35,10.818 -7.35,17.752 0,6.934 2.809,13.211 7.35,17.752 4.54,4.54 10.817,7.349 17.751,7.349 6.934,0 13.212,-2.809 17.752,-7.349 4.54,-4.541 7.35,-10.818 7.35,-17.752 0,-6.935 -2.81,-13.212 -7.35,-17.752z"/>
  <path class="fil1 str0" d="M563.409 324.993c21.007,0 40.033,8.519 53.802,22.288 13.769,13.77 22.288,32.795 22.288,53.803 0,21.008 -8.519,40.032 -22.288,53.802 -13.769,13.77 -32.794,22.288 -53.802,22.288 -21.009,0 -40.033,-8.518 -53.802,-22.288 -13.77,-13.77 -22.288,-32.794 -22.288,-53.802 0,-21.009 8.518,-40.033 22.288,-53.803 13.769,-13.769 32.793,-22.288 53.802,-22.288zm17.752 58.339c-4.541,-4.54 -10.818,-7.35 -17.752,-7.35 -6.935,0 -13.211,2.81 -17.752,7.35 -4.54,4.54 -7.349,10.818 -7.349,17.752 0,6.934 2.809,13.211 7.349,17.751 4.541,4.541 10.817,7.35 17.752,7.35 6.933,0 13.211,-2.809 17.752,-7.35 4.539,-4.54 7.349,-10.817 7.349,-17.751 0,-6.935 -2.81,-13.212 -7.349,-17.752z"/>
  <path class="fil4" d="M401.083 487.319c21.007,0 40.032,8.519 53.802,22.288 13.769,13.77 22.288,32.796 22.288,53.803 0,21.009 -8.519,40.032 -22.288,53.802 -13.77,13.77 -32.794,22.288 -53.802,22.288 -21.009,0 -40.033,-8.518 -53.803,-22.288 -13.77,-13.77 -22.288,-32.793 -22.288,-53.802 0,-21.008 8.518,-40.033 22.288,-53.803 13.77,-13.769 32.794,-22.288 53.803,-22.288zm17.751 58.339c-4.54,-4.539 -10.817,-7.35 -17.751,-7.35 -6.935,0 -13.212,2.811 -17.752,7.35 -4.54,4.54 -7.349,10.818 -7.349,17.752 0,6.934 2.809,13.211 7.349,17.752 4.54,4.54 10.817,7.349 17.752,7.349 6.933,0 13.211,-2.809 17.751,-7.349 4.54,-4.541 7.35,-10.818 7.35,-17.752 0,-6.935 -2.81,-13.212 -7.35,-17.752z"/>
  <path class="fil1 str0" d="M76.43 162.666c21.007,0 40.033,8.52 53.802,22.289 13.769,13.769 22.288,32.795 22.288,53.802 0,21.009 -8.519,40.033 -22.288,53.802 -13.769,13.77 -32.794,22.288 -53.802,22.288 -21.009,0 -40.033,-8.518 -53.802,-22.288 -13.77,-13.769 -22.288,-32.793 -22.288,-53.802 0,-21.008 8.518,-40.033 22.288,-53.802 13.769,-13.769 32.793,-22.289 53.802,-22.289zm17.752 58.339c-4.541,-4.539 -10.818,-7.349 -17.752,-7.349 -6.935,0 -13.211,2.81 -17.752,7.349 -4.54,4.541 -7.349,10.819 -7.349,17.752 0,6.935 2.809,13.212 7.349,17.752 4.541,4.54 10.817,7.349 17.752,7.349 6.933,0 13.211,-2.809 17.752,-7.349 4.539,-4.54 7.349,-10.817 7.349,-17.752 0,-6.934 -2.81,-13.211 -7.349,-17.752z"/>
  <polygon class="fil5 str1" points="0.339,639.5 639.5,639.5 639.5,649.645 0.339,649.645 "/>
  <polygon class="fil5" points="649.761,639.384 649.761,0.224 639.616,0.224 639.616,639.384 "/>
 </g>
</svg>
