<?xml version="1.0" encoding="UTF-8"?>
<svg xmlns="http://www.w3.org/2000/svg" version="1.1" viewBox="0 0 512 130.9">
  <defs>
    <style>
      .cls-1 {
        fill: #fff;
      }
    </style>
  </defs>
  <!-- Generator: Adobe Illustrator 28.7.1, SVG Export Plug-In . SVG Version: 1.2.0 Build 142)  -->
  <g>
    <g id="Layer_1">
      <path class="cls-1" d="M52.1,5.2l37.7.2c18.8,0,34.2,15.4,34.2,34.2v25.7c0,16.5-6.8,31.5-17.5,42.3-10.8,10.8-25.8,17.5-42.3,17.5s-31.5-6.8-42.3-17.5c-10.8-10.9-17.5-25.8-17.5-42.3v-12.2c0-4.4,3.6-8,8-8h23.9c4.4,0,8,3.6,8,8v12.2c0,5.5,2.3,10.5,5.9,14.1,3.7,3.7,8.7,5.9,14.1,5.9s10.5-2.3,14.1-5.9c3.7-3.7,5.9-8.7,5.9-14.1v-20h-32c-4.4-.1-8-3.7-8-8.1V13.2c0-2.2.8-4.1,2.3-5.6,1.5-1.5,3.5-2.3,5.6-2.3h.1Z"/>
      <path class="cls-1" d="M379.6,53.1l-.2,37.7c0,18.8-15.4,34.2-34.2,34.2h-25.7c-16.5,0-31.5-6.8-42.3-17.5-10.8-10.8-17.5-25.8-17.5-42.3s6.8-31.5,17.5-42.3c10.8-10.8,25.8-17.5,42.3-17.5h12.2c4.4,0,8,3.6,8,8v23.9c0,4.4-3.6,8-8,8h-12.2c-5.5,0-10.5,2.3-14.1,5.9-3.7,3.7-5.9,8.7-5.9,14.1s2.3,10.5,5.9,14.1c3.7,3.7,8.7,5.9,14.1,5.9h20v-32c.1-4.4,3.7-8,8.1-8h23.9c2.2,0,4.1.8,5.6,2.3s2.3,3.5,2.3,5.6h0Z"/>
      <path class="cls-1" d="M507.3,53.1l-.2,37.7c0,18.8-15.4,34.2-34.2,34.2h-25.7c-16.5,0-31.5-6.8-42.3-17.5-10.8-10.8-17.5-25.8-17.5-42.3s6.8-31.5,17.5-42.3c10.8-10.8,25.8-17.5,42.3-17.5h12.2c4.4,0,8,3.6,8,8v23.9c0,4.4-3.6,8-8,8h-12.2c-5.5,0-10.5,2.3-14.1,5.9-3.7,3.7-5.9,8.7-5.9,14.1s2.3,10.5,5.9,14.1c3.7,3.7,8.7,5.9,14.1,5.9h20v-32c.1-4.4,3.7-8,8.1-8h23.9c2.2,0,4.1.8,5.6,2.3s2.3,3.5,2.3,5.6h0Z"/>
      <path class="cls-1" d="M191.9,5.4c16.6,0,31.5,6.7,42.3,17.5,10.8,10.8,17.5,25.8,17.5,42.3s-6.7,31.5-17.5,42.3c-10.8,10.8-25.8,17.5-42.3,17.5s-31.5-6.7-42.3-17.5c-10.8-10.8-17.5-25.8-17.5-42.3s6.7-31.5,17.5-42.3c10.8-10.8,25.8-17.5,42.3-17.5h0ZM205.8,51.3c-3.6-3.6-8.5-5.8-13.9-5.8s-10.4,2.2-13.9,5.8c-3.6,3.6-5.8,8.5-5.8,13.9s2.2,10.4,5.8,13.9c3.6,3.6,8.5,5.8,13.9,5.8s10.4-2.2,13.9-5.8c3.6-3.6,5.8-8.5,5.8-13.9s-2.2-10.4-5.8-13.9h0Z"/>
    </g>
  </g>
</svg>